<svg id="b3bece71-a90b-4117-a0e4-203dd16bcdc7" data-name="图层 1" xmlns="http://www.w3.org/2000/svg" viewBox="0 0 120 36">
  <title>未标题-2</title>
  <g>
    <path d="M102.58,36H3.07A3.07,3.07,0,0,1,.24,31.75l11.7-28.1A5.94,5.94,0,0,1,17.42,0h99.51a3.07,3.07,0,0,1,2.83,4.25l-11.7,28.1A5.94,5.94,0,0,1,102.58,36Z" style="fill: #3095ef"/>
    <g>
      <path d="M30.7,24.41c-2.34-.21-3.64-.5-3.9-.86V26.2c.31.42,1.74.6,4.29.55h7.58a7.08,7.08,0,0,1,.94-2.58q-3.28.24-5.7.24Z" style="fill: #fff"/>
      <path d="M22.58,10.34a34.65,34.65,0,0,1,1.64,3.83l2.34-.86a17.11,17.11,0,0,0-1.48-3.83Z" style="fill: #fff"/>
      <rect x="27.42" y="13.78" width="2.34" height="9.69" style="fill: #fff"/>
      <path d="M37.58,23.47a1.16,1.16,0,0,0,.7-1.17V13.78h-2.5v7.81c.1.32-.34.45-1.33.39a5.64,5.64,0,0,1,.55,2A6,6,0,0,0,37.58,23.47Z" style="fill: #fff"/>
      <path d="M21.33,17.45h2.42v5.08c-.05,0-.94.68-2.66,1.88a23.38,23.38,0,0,0,1.64,2.34c0,.05.06,0,.16-.08q1.24-1.87,1.8-2a1.38,1.38,0,0,1,.7.39l.78.78V15.19H21.33Z" style="fill: #fff"/>
      <path d="M33.52,12.22l1.95.86a31.94,31.94,0,0,0,3-3.6H27.34v2h6.8Z" style="fill: #fff"/>
      <path d="M33.83,23.55V21.2h1.33V19.56H33.83V18.47h1.33V16.75H33.83V15.58h1.33V13.63q-.48-.32-1.29-.75a7.94,7.94,0,0,0-1.37-.58,11.24,11.24,0,0,0-1.41-.55l-1.32,1.33,1.71.7H30.39v1.8h1.17v1.17H30.39v1.72h1.17v1.09H30.39V21.2h1.17v2.35Z" style="fill: #fff"/>
      <path d="M46.48,9.88c.11-.11.16-.19.16-.24a5.86,5.86,0,0,0-2.26-.55A2.19,2.19,0,0,0,43.91,9a17.63,17.63,0,0,1-2.35,6.56c.16.05.47.18.94.39a7.13,7.13,0,0,0,1.25.47,16.68,16.68,0,0,0,1.09-2.5h5.71V11.75H45.63C45.94,11,46.22,10.4,46.48,9.88Z" style="fill: #fff"/>
      <polygon points="51.33 25.81 53.75 25.81 53.75 24.48 55.31 24.48 55.31 22.45 53.75 22.45 53.75 13.7 55.31 13.7 55.31 11.59 51.33 11.59 51.33 25.81" style="fill: #fff"/>
      <path d="M48.05,14.72H45.63V17h-4v2.11h3.83a9.13,9.13,0,0,1-4.14,6.33,19.69,19.69,0,0,1,2,1.56A16.14,16.14,0,0,0,47,22.22a16.94,16.94,0,0,1,2.58,3.51,2.44,2.44,0,0,1,.31-.23l.63-.39V22.84a21.75,21.75,0,0,0-2.74-3.2v-.23a.76.76,0,0,0,.08-.32h2.66V17h-2.5Z" style="fill: #fff"/>
      <polygon points="56.09 13.7 56.09 25.58 58.67 25.58 58.67 11.59 56.09 11.59 56.09 13.7" style="fill: #fff"/>
      <path d="M73.36,9.33A9.77,9.77,0,0,0,70.7,10a4.14,4.14,0,0,1,.39,1.1,16.82,16.82,0,0,0,6.41,9.06,20,20,0,0,1,2.11-2.73Q74.06,13.63,73.36,9.33Z" style="fill: #fff"/>
      <path d="M71,20.81A16.71,16.71,0,0,1,73.36,24a11.57,11.57,0,0,1,1.41,3l2.89-1.25a41.72,41.72,0,0,0-4.38-6.32Z" style="fill: #fff"/>
      <path d="M67.89,23.39q1.73-3.19,3.75-6.33a.25.25,0,0,0-.08-.31c-1.67-.47-2.65-.73-3-.78q-2,7-4.61,7.73l-.15.08a19.25,19.25,0,0,0,.86,2.5A1.51,1.51,0,0,0,65,26.2a61.33,61.33,0,0,1,8.13-1.09l-1.18-2A22.53,22.53,0,0,1,67.89,23.39Z" style="fill: #fff"/>
      <path d="M69.14,11.13l-3-.86q-.61,3.9-5.15,8a11.89,11.89,0,0,1,2.42,1.8,95.86,95.86,0,0,0,5.86-8.59C69.38,11.36,69.35,11.23,69.14,11.13Z" style="fill: #fff"/>
      <path d="M87.11,14.17h2.34v1.25h2.82V14.17H97V12.06H92.27v-1.4a2.83,2.83,0,0,1,.15-.86,2.38,2.38,0,0,0,.08-.47c0-.16-.68-.24-2-.24h-1v3H88Z" style="fill: #fff"/>
      <path d="M86.33,14.17l.86-2.11a10.19,10.19,0,0,1,.7-1.56,1,1,0,0,0,.16-.31,11.58,11.58,0,0,0-3-.78s-.08.1-.08.31a13.28,13.28,0,0,1-.62,2.42,9.25,9.25,0,0,1-1.33,2.66c1.09.21,2,.36,2.73.47A10.09,10.09,0,0,0,86.33,14.17Z" style="fill: #fff"/>
      <polygon points="84.69 26.83 87.19 26.83 87.19 25.81 87.19 23.86 87.19 19.64 84.69 19.64 84.69 26.83" style="fill: #fff"/>
      <polygon points="92.27 16.2 89.45 16.2 81.8 16.2 81.8 18.39 98.91 18.39 98.91 16.2 92.27 16.2" style="fill: #fff"/>
      <polygon points="93.91 21.83 93.91 23.86 93.91 25.81 93.91 26.83 96.56 26.83 96.56 19.64 93.91 19.64 93.91 21.83" style="fill: #fff"/>
      <rect x="87.97" y="23.86" width="5.16" height="1.95" style="fill: #fff"/>
      <rect x="87.97" y="19.64" width="5.16" height="2.19" style="fill: #fff"/>
    </g>
  </g>
</svg>
